PathFileType	4	(X/Y/Z)	C:/Users/beibeiliu/ov580/test_trc\sequence.8_training_dense_right.trc
DataRate	CameraRate	NumFrames	NumMarkers	Units	OrigDataRate	OrigDataStartFrame	OrigNumFrames
120	120	12	19	mm	120	56	83
Frame#	Time	ThumbCMC			ThumbMCP			ThumbIP			ThumbTip			IndexMCP			IndexPIP			IndexTip			MiddleMCP			MiddlePIP			MiddleTip			RingMCP			RingPIP			RingTip			PinkyMCP			PinkyPIP			PinkyTip			BackHand1			BackHand2			BackHand3	
		X0	Y0	Z0	X1	Y1	Z1	X2	Y2	Z2	X3	Y3	Z3	X4	Y4	Z4	X5	Y5	Z5	X6	Y6	Z6	X7	Y7	Z7	X8	Y8	Z8	X9	Y9	Z9	X10	Y10	Z10	X11	Y11	Z11	X12	Y12	Z12	X13	Y13	Z13	X14	Y14	Z14	X15	Y15	Z15	X16	Y16	Z16	X17	Y17	Z17	X18	Y18	Z18	
55	0.458333	127.324	47.451	20.3106	131.506	56.9011	-3.35486	136.932	62.6393	-21.5079	141.458	66.3999	-41.0313	88.7278	55.2178	-37.4202	77.026	64.9572	-54.05	68.3633	75.3772	-69.4495	65.5476	48.1167	-29.8275	52.8313	56.8815	-47.0048	34.929	65.6553	-65.5334	50.8745	42.0474	-9.44639	37.8329	49.1774	-29.9293	20.4568	52.5754	-40.2266	44.1144	39.726	12.706	25.9349	41.3606	7.5577	13.4296	37.1301	-3.72307	79.9606	25.0977	17.5371	95.7322	19.2333	40.4061	110.971	28.2296	11.5424	
56	0.466667	127.53	51.8635	19.5048	135.662	59.631	-4.09391	139.436	60.3991	-24.57	148.074	62.6975	-40.9699	93.6251	50.8968	-42.2695	89.6987	58.2059	-59.9639	80.2335	66.707	-82.0799	73.0608	44.4028	-36.6811	61.6436	49.7883	-54.4072	49.566	55.7396	-77.4201	59.0658	42.0212	-20.3955	42.8009	43.6335	-37.8306	30.816	47.3448	-53.3596	46.9361	41.4272	0.213608	30.679	41.0685	-5.28439	15.7286	36.094	-15.2046	80.3131	30.3019	17.4661	93.1388	25.6608	38.4455	108.437	31.6291	13.4365	
57	0.475	129.703	60.2967	19.7865	139.731	64.3018	-6.20181	147.288	64.9496	-27.8419	151.498	66.9088	-39.0419	104.923	50.4342	-44.3435	97.1118	54.0009	-65.4965	89.093	60.052	-87.4924	79.353	41.7039	-41.1707	71.8923	43.8516	-64.3299	60.4049	45.1174	-83.8191	63.6244	38.2019	-25.1094	54.3008	37.4478	-44.8892	46.389	38.1125	-66.1251	49.0184	36.2522	-6.00069	41.1262	34.8013	-18.3634	26.0713	24.1918	-30.2723	87.8553	32.9195	12.7296	93.7593	31.1674	34.0719	112.029	36.6721	13.1827	
58	0.483333	128.921	65.3718	17.1403	140.916	72.4581	-2.82979	151.664	72.1675	-21.7852	157.108	71.9219	-39.5688	111.995	46.079	-44.7018	110.849	47.6057	-69.227	105.209	48.5528	-89.6132	91.6327	33.7637	-42.0335	82.3382	30.1391	-67.0407	78.2918	27.9766	-91.6312	77.8785	29.1453	-30.9905	64.9148	23.3056	-50.1736	61.0872	19.8765	-68.0632	59.3298	26.4096	-10.0635	50.5729	20.0846	-22.7964	42.6117	6.97361	-32.8367	90.8072	31.9935	13.2797	98.849	33.7351	38.3612	118.271	40.3268	15.559	
59	0.491667	127.174	67.7755	18.0297	143.801	74.554	-2.31019	148.777	69.9964	-24.2389	159.377	73.2506	-36.7083	123.566	40.7415	-43.6679	119.691	36.3179	-64.8334	115.846	30.7615	-87.3057	101.856	23.108	-44.1936	98.1835	16.4854	-64.9757	94.8691	9.09804	-84.9685	85.4971	16.0354	-29.6683	79.6071	7.38839	-48.1772	75.1647	0.186454	-65.4499	69.2761	15.9307	-8.8394	61.9924	6.45445	-20.9077	59.458	-6.0602	-33.1238	97.5317	27.1215	9.22328	102.264	33.205	38.5809	121.595	40.0112	18.3655	
60	0.5	129.191	73.4819	20.7251	139.831	74.6316	-1.26264	153.455	74.6335	-19.6717	165.716	77.7926	-33.8396	135.329	32.6878	-39.8188	137.999	28.7973	-62.6611	140.472	21.6014	-83.0697	120.651	17.5839	-35.7741	121.632	9.67889	-57.7171	118.965	-7.89437	-81.6675	101.982	5.11055	-27.894	100.764	-3.36401	-43.8039	101.097	-15.4427	-61.6423	82.8739	5.69329	-6.74711	84.1531	-7.3036	-23.277	80.4022	-21.9022	-27.4218	106.116	22.2899	14.8593	106.622	31.9249	40.0112	127.914	40.2525	19.2376	
61	0.508333	128.281	74.8457	20.5878	140.095	85.7864	2.52871	155.222	85.6496	-16.2098	164.103	85.6011	-29.2748	152.405	40.3674	-27.8115	158.727	29.5206	-50.9845	166.511	27.1247	-69.2966	140.138	16.1253	-26.6189	151.568	8.04635	-49.2949	157.873	-4.49818	-69.1784	129.198	6.17568	-20.2524	133.915	-4.81997	-34.3395	139.233	-18.2634	-50.7689	110.665	-1.97668	-5.99892	111.178	-13.57	-14.5174	120.34	-32.4655	-25.9796	119.057	22.0158	17.6493	114.034	31.9518	42.2005	135.834	48.6705	25.164	
62	0.516667	122.549	80.5523	23.3881	131.622	90.6388	3.34774	149.21	97.5547	-14.187	157.592	105.405	-24.7023	163.506	53.0071	-20.1177	175.223	48.3578	-38.4863	190.439	48.3704	-58.9084	166.727	28.038	-21.8186	178.414	25.2438	-38.36	193.088	12.2034	-58.202	151.774	13.2134	-12.1045	168.815	7.06453	-29.4475	181.002	-4.27717	-44.628	134.539	0.328565	-0.0103504	147.533	-9.5935	-12.1816	161.314	-20.5691	-22.2432	132.715	28.53	23.3354	121.215	32.7019	46.7148	137.918	54.7188	27.8008	
63	0.525	115.369	82.8421	23.542	121.258	96.5079	4.99286	132.077	110.636	-9.15616	139.838	123.634	-22.3358	166.911	74.2228	-15.5828	182.437	82.6087	-33.4386	197.475	79.7514	-50.8688	176.02	52.0204	-15.2566	191.011	53.2883	-29.6211	214.779	48.1824	-48.4117	169.198	32.3476	-8.41299	187.066	30.2652	-23.0049	202.247	28.2723	-36.6769	157.799	14.2685	0.355035	171.399	12.8351	-9.89282	189.642	5.00564	-16.3946	147.447	37.8422	23.7136	128.909	37.9627	46.7926	137.697	66.2048	29.9514	
64	0.533333	104.875	79.1612	29.0235	107.686	102.008	8.77769	109.649	116.331	-3.23522	115.651	131.874	-15.9553	155.608	102.003	-9.75811	170.633	114.424	-29.0213	184.576	120.388	-43.6049	174.272	85.1914	-12.3526	191.478	88.5635	-26.621	209.707	98.3134	-40.8147	177.176	61.0766	-8.02026	198.236	65.7439	-22.6094	208.336	71.7143	-33.2886	173.736	39.9932	-2.21542	189.523	40.259	-11.8374	206.132	38.7567	-16.6092	154.723	52.4608	22.89	138.941	45.0558	45.8916	134.729	72.9524	33.6821	
65	0.541667	100.245	79.5051	30.1809	96.6659	96.9022	12.3737	93.5171	115.978	2.35732	91.7734	130.544	-9.00864	140.235	117.16	-6.71315	151.926	131.972	-24.9918	158.013	145.426	-37.3286	167.191	107.5	-11.7502	175.594	118.601	-24.4854	187.682	134.232	-38.1847	172.852	89.5813	-10.1441	185.806	99.8465	-22.8174	198.498	111.128	-35.8185	178.099	65.5025	-6.24041	193.533	68.8838	-17.0024	205.432	75.5391	-22.6113	153.876	67.2507	24.0588	141.21	54.6736	44.283	134.155	82.4454	34.6298	
66	0.55	91.3863	79.4846	33.2828	81.4673	93.3495	16.5964	73.436	114.821	5.26672	68.4576	126.733	-5.22895	118.408	126.74	-10.2728	117.668	141.926	-23.4917	120.841	159.647	-42.9101	140.839	120.593	-13.4127	146.8	136.4	-29.5342	155.873	154.564	-47.7857	157.501	107.114	-15.615	165.59	120.454	-30.7567	169.932	131.872	-43.258	166.462	83.5968	-10.9641	174.484	89.6999	-21.5646	191.521	97.8259	-32.3471	148.929	82.7412	19.2089	141.443	66.1592	39.8737	122.222	87.6163	35.2368	
